# xmcd CD database file
# Copyright (C) 1995-1998 Ti Kan
#
# Track frame offsets:
#	150
#	12862
#	26072
#	41465
#	55342
#	70270
#	81880
#	103252
#	117522
#	136002
#	148515
#	162727
#	181940
#	195860
#	211645
#	229330
#	242320
#	257887
#	270607
#	287180
#
# Disc length: 3994 seconds
#
# Revision: 1
# Processed by: cddbd v1.4b41PL1 Copyright (c) Steve Scherf et al.
# Submitted via: CDex 1.30
#
DISCID=1c0f9814
DTITLE=Anne Murray - The Signature Series, Volume 3 (Love Song/Highly Prized
DTITLE=Possession)
DYEAR=1973
DGENRE=Country
TTITLE0=A Love Song
TTITLE1=Just One Look
TTITLE2=Another Pot O' Tea
TTITLE3=Children Of My Mind
TTITLE4=Real Emotion
TTITLE5=Watching The River Run
TTITLE6=Backstreet Lovin'
TTITLE7=Son Of A Rotten Gambler
TTITLE8=You Won't See Me
TTITLE9=Send A Little Love My Way
TTITLE10=Dream Lover
TTITLE11=Slow Fall
TTITLE12=Lullabye
TTITLE13=Saved By The Grace Of Your Love
TTITLE14=When We Both Had The Time To Love
TTITLE15=Day Tripper
TTITLE16=Lift Your Hearts To The Sun
TTITLE17=Uproar
TTITLE18=Highly Prized Possession
TTITLE19=Please Don't Sell Nova Scotia
EXTD=\nYEAR: 1973/74  ID3G:   2
EXTT0=
EXTT1=
EXTT2=
EXTT3=
EXTT4=
EXTT5=
EXTT6=
EXTT7=
EXTT8=
EXTT9=
EXTT10=
EXTT11=
EXTT12=
EXTT13=
EXTT14=
EXTT15=
EXTT16=
EXTT17=
EXTT18=
EXTT19=
PLAYORDER=
